Coordinates
version=1
nRows=6
nColumns=63
inDegrees=yes

Units are S.I. units (second, meters, Newtons, ...)
If the header above contains a line with 'inDegrees', this indicates whether rotational values are in degrees (yes) or radians (no).

endheader
time	pelvis_tilt	pelvis_list	pelvis_rotation	pelvis_tx	pelvis_ty	pelvis_tz	hip_flexion_r	hip_adduction_r	hip_rotation_r	knee_angle_r	knee_angle_r_beta	ankle_angle_r	subtalar_angle_r	mtp_angle_r	hip_flexion_l	hip_adduction_l	hip_rotation_l	knee_angle_l	knee_angle_l_beta	ankle_angle_l	subtalar_angle_l	mtp_angle_l	L5_S1_Flex_Ext	L5_S1_Lat_Bending	L5_S1_axial_rotation	L4_L5_Flex_Ext	L4_L5_Lat_Bending	L4_L5_axial_rotation	L3_L4_Flex_Ext	L3_L4_Lat_Bending	L3_L4_axial_rotation	L2_L3_Flex_Ext	L2_L3_Lat_Bending	L2_L3_axial_rotation	L1_L2_Flex_Ext	L1_L2_Lat_Bending	L1_L2_axial_rotation	L1_T12_Flex_Ext	L1_T12_Lat_Bending	L1_T12_axial_rotation	Abs_r3	Abs_r2	Abs_r1	Abs_t1	Abs_t2	neck_flexion	neck_bending	neck_rotation	arm_flex_r	arm_add_r	arm_rot_r	elbow_flex_r	pro_sup_r	wrist_flex_r	wrist_dev_r	arm_flex_l	arm_add_l	arm_rot_l	elbow_flex_l	pro_sup_l	wrist_flex_l	wrist_dev_l
      4.80000000	      1.10898238	      2.50468338	    -87.78856378	      2.43352737	      0.89291597	      0.99979207	     -0.55961914	      6.49857121	     39.93400048	      0.39230220	      0.00684696	   -191.76735512	    -19.90023325	      0.00000000	     14.30404158	      4.57915182	    -39.91891744	      0.13087294	      0.00228416	   -149.27981451	     19.87774436	      0.00000000	     -0.00293454	     -0.15267997	    -17.49313446	     -0.00544973	     -0.20306436	    -18.58645537	     -0.00482115	     -0.37122608	    -18.58645537	     -0.00335388	     -0.37122608	    -15.30649266	     -0.00272501	     -0.31134500	    -14.21317175	     -0.00167679	     -0.23650128	    -13.11985085	     -0.02096109	     -1.72714638	    -97.29156594	      0.00000000	      0.00000000	     -0.00000000	      0.00000000	     -0.00000000	    -11.43753481	      2.07182452	    -14.28453283	     23.89378319	     50.85672662	      0.00000000	      5.00000763	    -16.05963337	    -10.38743713	     17.87321591	     22.67777017	     52.83271530	      0.00000000	      5.00000763
      4.83333333	      1.40025813	      2.20624167	    -87.12796876	      2.43270353	      0.89336537	      0.99945129	     -0.89779484	      6.34130061	     39.93272303	      0.39401532	      0.00687686	   -191.57101196	    -19.89847582	      0.00000000	     13.94880224	      4.98044492	    -39.91855416	      0.11885018	      0.00207433	   -149.09306298	     19.87711077	      0.00000000	     -0.00069205	     -0.23647301	    -17.61625104	     -0.00128520	     -0.31450910	    -18.71726673	     -0.00113697	     -0.57496047	    -18.71726673	     -0.00079094	     -0.57496047	    -15.41421966	     -0.00064264	     -0.48221576	    -14.31320397	     -0.00039544	     -0.36629669	    -13.21218828	     -0.00494323	     -2.67502995	    -97.97630343	      0.00000000	      0.00000000	     -0.00000000	      0.00000000	     -0.00000000	    -10.85480303	      0.32571254	     -5.26800326	     21.83118727	     53.52725504	      0.00000000	      5.00000580	    -16.59524178	    -10.21248237	     15.81967717	     22.87682328	     53.09498427	      0.00000000	      5.00000580
      4.86666667	      1.58930926	      2.01147396	    -86.75767662	      2.43242772	      0.89371400	      0.99946250	     -1.14195571	      6.20171755	     39.93193735	      0.38764828	      0.00676574	   -191.37747118	    -19.89738269	      0.00000000	     13.71280248	      5.24799106	    -39.91836783	      0.11504580	      0.00200793	   -148.87293605	     19.87696727	      0.00000000	     -0.00060137	     -0.28141986	    -17.68551616	     -0.00111680	     -0.37428841	    -18.79086093	     -0.00098798	     -0.68424424	    -18.79086093	     -0.00068730	     -0.68424424	    -15.47482664	     -0.00055843	     -0.57387137	    -14.36948188	     -0.00034362	     -0.43591936	    -13.26413712	     -0.00429550	     -3.18347768	    -98.36153525	      0.00000000	      0.00000000	     -0.00000000	      0.00000000	     -0.00000000	    -10.30989929	     -1.02114654	      2.16715738	     20.73447744	     55.65033206	      0.00000000	      5.00000441	    -16.85603734	    -10.23704269	     15.23252155	     23.06400348	     53.71641946	      0.00000000	      5.00000441
      4.90000000	      1.64196547	      1.97761448	    -86.70044224	      2.43292155	      0.89386081	      0.99990033	     -1.22373875	      6.10276750	     39.93178646	      0.37745462	      0.00658783	   -191.26654732	    -19.89735261	      0.00000000	     13.65747556	      5.38696865	    -39.91872693	      0.11674048	      0.00203751	   -148.85610180	     19.87755707	      0.00000000	     -0.00090475	     -0.27372841	    -17.69175996	     -0.00168021	     -0.36405879	    -18.79749496	     -0.00148642	     -0.66554326	    -18.79749496	     -0.00103404	     -0.66554326	    -15.48028996	     -0.00084015	     -0.55818698	    -14.37455497	     -0.00051697	     -0.42400531	    -13.26881997	     -0.00646254	     -3.09647056	    -98.39626137	      0.00000000	      0.00000000	     -0.00000000	      0.00000000	     -0.00000000	    -10.14776397	     -1.18312840	      2.18018175	     20.73884478	     55.65541285	      0.00000000	      5.00000440	    -16.80434965	    -10.22978985	     15.23776241	     23.11302359	     53.72555939	      0.00000000	      5.00000440
      4.93333333	      1.71876139	      1.93729625	    -86.69759745	      2.43386800	      0.89409475	      1.00051156	     -1.32439844	      5.94362165	     39.93181547	      0.36501606	      0.00637073	   -191.17442219	    -19.89737497	      0.00000000	     13.57518119	      5.59021757	    -39.91916601	      0.12136058	      0.00211814	   -148.93297803	     19.87837264	      0.00000000	     -0.00229356	     -0.26009572	    -17.69590878	     -0.00425937	     -0.34592730	    -18.80190308	     -0.00376809	     -0.63239673	    -18.80190308	     -0.00262131	     -0.63239673	    -15.48392018	     -0.00212980	     -0.53038719	    -14.37792588	     -0.00131054	     -0.40288827	    -13.27193158	     -0.01638268	     -2.94225477	    -98.41933586	      0.00000000	      0.00000000	     -0.00000000	      0.00000000	     -0.00000000	     -9.95401025	     -1.32603002	      2.18304839	     20.78504176	     55.65669513	      0.00000000	      5.00000439	    -16.72722114	    -10.22321860	     15.24526515	     23.16578796	     53.73323196	      0.00000000	      5.00000439
      4.96666667	      1.77501100	      1.92573700	    -86.61426220	      2.43493099	      0.89433252	      1.00109758	     -1.40628052	      5.81349982	     39.93160083	      0.34120827	      0.00595521	   -191.07858484	    -19.89685870	      0.00000000	     13.51239778	      5.81983171	    -39.91991253	      0.12325551	      0.00215121	   -149.30032935	     19.87947123	      0.00000000	     -0.00305975	     -0.24173429	    -17.71169471	     -0.00568226	     -0.32150660	    -18.81867563	     -0.00502686	     -0.58775274	    -18.81867563	     -0.00349699	     -0.58775274	    -15.49773287	     -0.00284128	     -0.49294456	    -14.39075195	     -0.00174834	     -0.37444641	    -13.28377103	     -0.02185547	     -2.73454660	    -98.50713246	      0.00000000	      0.00000000	     -0.00000000	      0.00000000	     -0.00000000	     -9.79750790	     -1.43742388	      2.20557988	     20.87697986	     55.65026359	      0.00000000	      5.00000436	    -16.63332921	    -10.18115349	     15.28921411	     23.24084091	     53.76242465	      0.00000000	      5.00000436
